<?xml version="1.0" standalone="no"?>
<!DOCTYPE svg PUBLIC "-//W3C//DTD SVG 20010904//EN"
 "http://www.w3.org/TR/2001/REC-SVG-20010904/DTD/svg10.dtd">
<svg version="1.0" xmlns="http://www.w3.org/2000/svg"
 width="700.000000pt" height="700.000000pt" viewBox="0 0 700.000000 700.000000"
 preserveAspectRatio="xMidYMid meet">
<metadata>
Created by potrace 1.14, written by Peter Selinger 2001-2017
</metadata>
<g transform="translate(0.000000,700.000000) scale(0.100000,-0.100000)"
fill="#000000" stroke="none">
<path d="M2620 6555 c-5 -14 -30 -85 -55 -158 -25 -73 -50 -141 -55 -152 -5
-11 -18 -47 -28 -80 -11 -33 -43 -123 -70 -200 -28 -77 -98 -277 -156 -445
-59 -168 -113 -321 -121 -340 -8 -19 -35 -96 -61 -170 -61 -177 -180 -518
-209 -600 -13 -36 -44 -123 -68 -195 -25 -71 -69 -195 -97 -275 -29 -80 -58
-163 -65 -185 -8 -22 -39 -112 -70 -200 -31 -88 -88 -248 -125 -355 -38 -107
-123 -350 -190 -540 -67 -190 -153 -433 -190 -540 -38 -107 -94 -267 -125
-355 -31 -88 -76 -216 -100 -285 -24 -69 -57 -163 -73 -210 -97 -274 -159
-450 -198 -565 -25 -71 -54 -152 -64 -180 -10 -27 -21 -60 -25 -72 l-6 -23
699 0 698 0 46 152 c82 274 358 1181 379 1246 l21 62 558 0 559 0 -2 542 -2
543 -389 2 c-214 2 -391 5 -393 7 -3 3 202 681 287 951 77 242 402 1340 459
1550 l40 150 0 473 -1 472 -399 0 -399 0 -10 -25z"/>
<path d="M3763 6385 c-27 -16 -48 -40 -62 -68 -20 -42 -20 -48 -20 -2969 l0
-2928 183 0 182 0 -1 2933 c-1 2816 -2 2933 -19 2968 -44 86 -173 118 -263 64z"/>
<path d="M4438 4949 c-44 -12 -83 -39 -108 -77 l-25 -36 -1 -2208 -1 -2208
183 0 183 0 -2 2208 -2 2209 -28 41 c-16 22 -43 47 -60 56 -39 18 -102 25
-139 15z"/>
<path d="M5068 3749 c-52 -8 -104 -47 -125 -93 -17 -38 -18 -124 -18 -1636 l0
-1595 183 -3 182 -2 0 1597 0 1597 -21 43 c-35 73 -110 107 -201 92z"/>
<path d="M5672 2462 c-34 -11 -90 -59 -109 -95 -15 -29 -16 -115 -15 -977 0
-520 1 -951 1 -957 1 -10 44 -13 181 -13 l180 0 0 954 c0 650 -3 964 -11 983
-13 36 -57 82 -89 95 -33 13 -109 19 -138 10z"/>
<path d="M6309 1440 c-49 -9 -95 -44 -119 -90 -19 -37 -20 -61 -20 -485 l0
-445 180 0 c164 0 180 2 181 18 0 9 1 209 1 444 1 369 -1 431 -15 460 -37 78
-114 114 -208 98z"/>
</g>
</svg>
